<svg width="32" height="32" fill="none" xmlns="http://www.w3.org/2000/svg"><path d="M19.875 22h-7.742v-1.39l2.945-2.962c.87-.89 1.445-1.52 1.727-1.89.286-.375.494-.727.625-1.055.13-.328.195-.68.195-1.055 0-.515-.156-.921-.469-1.218-.307-.297-.734-.446-1.281-.446a3.44 3.44 0 00-1.273.243c-.407.161-.878.453-1.415.875l-.992-1.211c.636-.537 1.253-.917 1.852-1.141a5.419 5.419 0 011.914-.336c1.062 0 1.914.279 2.555.836.64.552.96 1.297.96 2.234a3.88 3.88 0 01-.28 1.47c-.183.463-.467.942-.852 1.437-.38.49-1.016 1.153-1.907 1.992l-1.984 1.922v.078h5.422V22z" fill="#A65CF0"/><rect x="1" y="1" width="30" height="30" rx="9" stroke="#A65CF0" stroke-width="2"/></svg>